<?xml version="1.0" standalone="no"?>
<!DOCTYPE svg PUBLIC "-//W3C//DTD SVG 20010904//EN"
 "http://www.w3.org/TR/2001/REC-SVG-20010904/DTD/svg10.dtd">
<svg version="1.0" xmlns="http://www.w3.org/2000/svg"
 width="1059.000000pt" height="1059.000000pt" viewBox="0 0 1059.000000 1059.000000"
 preserveAspectRatio="xMidYMid meet">
<metadata>
Created by potrace 1.14, written by Peter Selinger 2001-2017
</metadata>
<g transform="translate(0.000000,1059.000000) scale(0.100000,-0.100000)"
fill="#000000" stroke="none">
<path d="M0 5295 l0 -5295 5290 0 5290 0 0 5295 0 5295 -5290 0 -5290 0 0
-5295z m4309 1358 c426 -62 741 -322 835 -692 14 -52 36 -231 36 -287 l0 -24
-289 0 -289 0 -7 63 c-13 126 -51 205 -130 275 -97 85 -222 125 -390 125 -267
0 -426 -101 -498 -316 -20 -59 -21 -86 -25 -525 -4 -507 1 -568 48 -669 52
-112 138 -185 277 -234 76 -27 285 -38 376 -19 235 49 347 202 347 478 l0 72
-360 0 -360 0 0 220 0 220 650 0 650 0 0 -740 0 -740 -174 0 -174 0 -53 78
-54 79 -65 -45 c-133 -92 -313 -160 -487 -183 -115 -15 -332 -6 -445 20 -427
97 -708 408 -780 862 -9 61 -13 214 -13 564 0 422 2 493 18 584 35 197 112
373 221 502 237 282 651 403 1135 332z m3291 -325 l-1 -273 -599 -805 c-330
-443 -600 -808 -600 -812 0 -5 270 -8 600 -8 l600 0 0 -285 0 -285 -955 0
-955 0 0 299 0 299 585 776 c322 426 585 778 585 781 0 3 -263 5 -585 5 l-585
0 0 111 0 111 172 179 172 179 783 0 783 0 0 -272z m-5114 -475 c-3 -3 -329
-143 -726 -313 -397 -169 -722 -311 -723 -316 -1 -5 324 -147 722 -316 397
-168 725 -308 727 -311 2 -2 3 -101 2 -219 l-3 -215 -987 426 -988 426 0 210
0 210 988 426 987 426 3 -215 c1 -118 0 -217 -2 -219z m6617 -18 l927 -400 0
-210 0 -210 -988 -426 -987 -426 -3 215 c-1 118 0 217 2 219 2 3 329 143 726
313 396 169 722 312 723 316 0 5 -203 96 -453 202 -250 106 -578 245 -727 308
l-273 116 0 219 0 218 63 -27 c35 -15 480 -207 990 -427z"/>
</g>
</svg>
